PathFileType	4	(X/Y/Z)	C:/Users/opensim2020/Desktop/walking_exp_matlab/subject06_walking19_straight_04.trc	
DataRate	CameraRate	NumFrames	NumMarkers	Units	OrigDataRate	OrigDataStartFrame	OrigNumFrames	
100.00	100.00	8	49	mm	100.00	4671	340	
Frame#	Time	LFHD			RFHD			LBHD			RBHD			C7			T10			CLAV			STRN			RBAK			LSHO			LUPA			LELB			LFRM			LWRA			LWRB			LFIN			RSHO			RUPA			RELB			RFRM			RWRA			RWRB			RFIN			LASI			RASI			LPSI			RPSI			LTHI			LKNE			LTIB			LANK			LHEE			LTOE			RTHI			RKNE			RTIB			RANK			RHEE			RTOE			*39			*40			*41			*42			*43			*44			*45			*46			*47			*48			
		X1	Y1	Z1	X2	Y2	Z2	X3	Y3	Z3	X4	Y4	Z4	X5	Y5	Z5	X6	Y6	Z6	X7	Y7	Z7	X8	Y8	Z8	X9	Y9	Z9	X10	Y10	Z10	X11	Y11	Z11	X12	Y12	Z12	X13	Y13	Z13	X14	Y14	Z14	X15	Y15	Z15	X16	Y16	Z16	X17	Y17	Z17	X18	Y18	Z18	X19	Y19	Z19	X20	Y20	Z20	X21	Y21	Z21	X22	Y22	Z22	X23	Y23	Z23	X24	Y24	Z24	X25	Y25	Z25	X26	Y26	Z26	X27	Y27	Z27	X28	Y28	Z28	X29	Y29	Z29	X30	Y30	Z30	X31	Y31	Z31	X32	Y32	Z32	X33	Y33	Z33	X34	Y34	Z34	X35	Y35	Z35	X36	Y36	Z36	X37	Y37	Z37	X38	Y38	Z38	X39	Y39	Z39	X40	Y40	Z40	X41	Y41	Z41	X42	Y42	Z42	X43	Y43	Z43	X44	Y44	Z44	X45	Y45	Z45	X46	Y46	Z46	X47	Y47	Z47	X48	Y48	Z48	X49	Y49	Z49	

128	1.270	-922.36182	456.56522	1654.66394	-1054.52161	456.53613	1646.29443	-923.07007	586.83508	1593.25574	-1052.57959	585.10919	1589.91919	-978.35834	581.06024	1441.12952	-989.80780	614.70953	1112.76123	-984.54419	470.77380	1364.67419	-978.99255	432.94171	1187.72595	-1056.16077	655.69537	1271.36145	-820.81641	514.33368	1395.83521	-748.97491	481.83438	1195.89490	-737.93939	457.80383	1084.76648	-731.12787	381.55585	953.72241	-790.44293	292.43747	871.29132	-747.07898	340.39413	842.27026	-759.22131	272.80563	782.56421	-1144.40015	521.50763	1395.42175	-1229.80957	572.34534	1199.52527	-1242.49353	571.83887	1077.59290	-1261.82312	560.74103	958.13867	-1236.63928	499.52924	817.97491	-1272.71704	557.78973	820.62219	-1277.81506	522.46362	743.74945	-880.11963	443.64972	946.07184	-1102.47510	435.47656	959.46075	-913.50299	599.56299	980.15662	-1082.11633	588.73315	984.30139	-839.71332	551.23145	637.56195	-864.51215	582.64587	476.15485	-880.36255	680.06824	236.83095	-931.44421	730.21704	73.98936	-976.30554	773.59698	66.73277	-935.52039	590.47290	33.58274	-1167.74829	436.44986	634.07959	-1136.08020	401.02451	517.05859	-1150.31140	359.67355	257.62793	-1113.07422	304.94412	77.71949	-1068.22864	333.72888	42.41554	-1106.84241	147.27026	79.01437	-980.53802	558.78278	1688.62781																											 
129	1.280	-923.95300	450.75903	1654.09558	-1056.06616	450.65811	1645.65186	-924.65448	580.99976	1592.65747	-1053.83923	578.94513	1589.21985	-979.87665	575.08142	1440.38989	-991.30096	608.22272	1111.99097	-985.84363	464.74463	1364.03638	-979.99432	426.61493	1187.16772	-1057.59375	649.36121	1270.40662	-822.15613	508.72214	1395.36816	-750.34210	476.04425	1195.37000	-739.23212	451.96768	1084.33191	-732.77399	375.40100	953.20520	-792.25635	285.74792	871.47852	-749.23755	333.61978	842.08185	-761.38037	266.09000	782.61237	-1145.79932	515.20380	1394.59924	-1231.07336	566.20898	1198.64795	-1243.91089	565.77435	1076.79272	-1263.29309	555.03149	957.28607	-1238.18054	494.41702	816.88593	-1274.16028	552.49951	819.64404	-1279.28418	517.77893	742.69128	-880.97705	437.80624	945.30341	-1103.27917	428.41818	958.59430	-914.90967	593.22925	979.47107	-1083.49341	581.65491	983.67999	-840.72461	545.95471	637.15558	-865.22363	577.85535	475.80927	-880.73889	677.57465	237.39558	-931.39856	729.71118	75.02165	-976.30640	773.56287	68.39423	-935.61060	590.35999	33.57980	-1168.41663	430.81396	632.84686	-1136.60620	396.38913	515.45001	-1150.67822	357.40009	255.60907	-1113.13806	304.13504	75.19841	-1068.45459	333.25613	40.25513	-1107.25232	146.49858	75.42529	-982.13098	552.89484	1688.02271																											 
130	1.290	-925.55145	444.89185	1653.57263	-1057.68042	444.67725	1644.99731	-926.23462	575.07904	1592.09216	-1055.48010	572.92847	1588.56287	-981.44727	569.09491	1439.65857	-992.82471	601.58624	1111.23474	-987.15417	458.46478	1363.56775	-981.07874	420.08228	1186.65967	-1059.09485	642.92865	1269.38220	-823.58881	502.82761	1394.81958	-751.72839	470.18887	1194.90344	-740.87189	446.20718	1083.70215	-734.52905	369.28030	952.88647	-794.21393	279.44916	871.53625	-751.08533	327.05859	841.87408	-763.61816	259.59061	782.61926	-1147.28699	508.88574	1393.81824	-1232.55066	559.92072	1197.93958	-1245.39893	559.53931	1076.01477	-1264.81543	549.23090	956.49060	-1239.79883	488.98083	815.80255	-1275.77698	547.19916	818.85193	-1280.96692	512.66748	741.78094	-881.85675	431.58875	944.59937	-1104.18750	421.28088	957.61621	-916.46954	586.79443	978.79822	-1085.00867	574.54755	983.13696	-841.70276	540.60333	636.72998	-865.98163	572.94562	475.41046	-881.04718	675.01868	237.95795	-931.20673	729.08209	76.09550	-976.02197	773.21967	69.91473	-935.95447	590.09613	33.41491	-1169.16736	425.13037	631.52051	-1137.19568	391.88409	513.77325	-1151.27380	355.33176	253.52563	-1113.69690	304.06613	72.59496	-1068.84863	333.62094	37.70247	-1107.36011	146.47618	71.41979	-983.82935	546.97333	1687.43274																											 
131	1.300	-927.20068	439.00320	1652.96753	-1059.28906	438.63834	1644.34900	-928.01538	569.18994	1591.57776	-1057.17456	566.95294	1587.90930	-983.15845	563.09558	1438.89099	-994.44226	594.77606	1110.47644	-988.59741	452.36926	1362.96704	-982.19312	413.52191	1186.17053	-1060.73254	636.44141	1268.39099	-825.10541	497.25269	1394.41406	-753.19000	464.38730	1194.42847	-742.44452	440.40842	1083.19653	-736.23743	363.13065	952.56525	-796.25427	273.39581	871.48096	-753.07355	320.72711	841.74506	-765.69714	252.97388	782.64301	-1148.81213	502.48495	1393.04492	-1234.01807	553.59747	1197.20349	-1246.89819	553.18488	1075.27405	-1266.38281	543.23816	955.72900	-1241.42517	483.39346	814.69006	-1277.45654	541.78351	818.13403	-1282.61938	507.39926	740.89642	-882.78345	424.75562	944.03784	-1104.98755	414.02432	956.65723	-918.01929	580.22369	978.22009	-1086.58716	567.23914	982.55072	-842.55151	534.90948	636.25391	-866.69916	567.82892	475.04156	-881.21869	672.29468	238.64333	-930.92157	728.47327	77.32743	-975.43781	772.46252	71.24432	-935.80109	590.04803	33.55954	-1169.96313	419.43936	630.14337	-1137.94214	387.42532	512.07507	-1152.00586	353.37775	251.35388	-1113.84900	304.61478	69.45706	-1069.17529	334.55112	34.58968	-1107.17761	146.99170	66.93416	-985.91260	541.19556	1686.95654																											 
132	1.310	-928.91913	433.05435	1652.47620	-1060.99890	432.56644	1643.71497	-929.77795	563.25562	1591.10315	-1058.98352	560.92175	1587.31812	-984.90625	557.07690	1438.14075	-996.13281	587.78027	1109.70264	-990.05078	446.12991	1362.49683	-983.33038	406.13812	1185.83130	-1062.40759	629.83374	1267.36792	-826.74176	491.31424	1393.87769	-754.70886	458.56668	1193.99963	-743.98480	434.48935	1082.77344	-737.90179	356.98172	952.27216	-797.96289	266.77008	871.56616	-754.58838	314.30280	841.58490	-767.73395	246.43239	782.62036	-1150.44739	496.05396	1392.37012	-1235.68823	547.06659	1196.53552	-1248.44702	546.69415	1074.56909	-1267.96741	536.99902	954.99292	-1243.10864	477.67758	813.84790	-1279.12854	536.05188	817.41077	-1284.27112	502.00040	740.03992	-883.73816	418.17944	943.35175	-1105.95203	406.60229	955.63745	-919.61920	573.55243	977.68512	-1088.25525	559.91608	982.05194	-843.26477	529.04163	635.85034	-867.47107	562.50165	474.71393	-881.35400	669.48468	239.37634	-930.51074	727.80853	78.63560	-974.96759	772.31415	73.29001	-935.88245	589.90240	33.53036	-1170.76880	413.74957	628.71130	-1138.60095	382.96768	510.33530	-1152.44910	351.77960	249.16884	-1113.44958	304.77637	66.80886	-1068.70422	334.49344	33.11034	-1107.23230	146.89931	61.66722	-987.59180	535.12860	1686.32532																											 
133	1.320	-930.62677	427.08047	1652.11401	-1062.77271	426.48480	1643.30396	-931.57343	557.24689	1590.66516	-1060.76404	554.77106	1586.79993	-986.80896	551.05762	1437.53101	-997.92401	580.48309	1108.93115	-991.64545	439.69681	1362.14600	-984.59363	399.31897	1185.50562	-1064.19714	623.14911	1266.28442	-828.34576	485.72540	1393.56250	-756.26123	452.71475	1193.56604	-745.58929	428.56134	1082.32544	-739.55597	350.83130	951.96680	-799.74445	260.44418	871.50635	-756.59662	307.75665	841.37152	-769.65082	239.93727	782.56177	-1152.14661	489.57095	1391.76208	-1237.24438	540.62231	1195.85779	-1250.09680	540.14172	1073.91748	-1269.60815	530.74707	954.31879	-1244.78455	472.17242	813.29810	-1280.80017	530.22571	816.64978	-1285.95337	496.37228	739.21655	-884.74310	411.41370	942.78491	-1106.94824	399.25784	954.58545	-921.20636	566.81482	977.33734	-1090.10632	552.51318	981.73956	-843.98065	522.97406	635.37494	-868.37537	557.03845	474.37988	-881.32385	666.50806	240.12166	-929.78241	726.95886	80.05753	-973.82623	771.50378	74.88984	-935.97131	589.70959	33.55330	-1171.85083	408.21765	627.51923	-1139.35205	379.23788	508.78754	-1152.31445	349.92975	247.45384	-1113.29370	302.62842	66.68414	-1068.01550	332.52780	34.91081	-1108.28564	144.34822	56.44434	-989.32953	529.04486	1685.93506																											 
134	1.330	-932.40881	421.12326	1652.20276	-1064.54028	420.35101	1643.27197	-933.50922	551.21552	1590.49902	-1062.68066	548.47052	1586.55139	-988.63507	544.86041	1437.32239	-999.40143	573.13684	1108.37524	-993.22357	433.27634	1362.13025	-985.98352	392.54962	1185.45874	-1066.01465	616.49744	1265.39600	-829.89087	479.87100	1393.36072	-757.87506	446.81445	1193.16809	-747.01379	422.52893	1081.97217	-741.25128	344.68829	951.70947	-801.58160	254.45245	871.36230	-758.32263	301.47134	841.26410	-771.44293	233.49927	782.51343	-1153.92859	483.01132	1391.32214	-1239.05261	533.78192	1195.35852	-1251.83557	533.43188	1073.37427	-1271.31262	524.32214	953.74188	-1246.43359	465.95419	812.73077	-1282.72925	524.25061	816.21429	-1287.69177	490.60065	738.57343	-885.76947	404.63333	942.19965	-1107.85962	391.99365	953.78192	-922.66400	559.83398	977.10687	-1091.91321	545.38196	981.96173	-844.99493	516.70898	635.02649	-869.44653	551.36914	474.13766	-881.23773	663.25385	241.13412	-928.81897	725.99841	81.76416	-972.64978	771.30878	77.41014	-936.08490	589.48895	33.54149	-1173.45178	402.82202	626.93994	-1140.91296	376.27820	508.07611	-1153.31323	346.40982	247.26689	-1114.35095	298.74652	66.84963	-1069.01917	329.94431	36.39564	-1109.04175	141.09325	53.84076	-991.51447	523.18756	1685.81653																											 
135	1.340	-934.24353	415.22147	1652.60840	-1066.34338	414.19351	1643.63550	-935.46533	545.16669	1590.67102	-1064.95447	542.54944	1586.68201	-990.50415	538.43890	1437.47681	-1000.64417	565.89886	1108.17700	-994.88489	426.75278	1362.44177	-987.32556	385.73764	1185.68115	-1067.83301	609.72998	1264.92310	-831.36768	474.01880	1393.36597	-759.53473	440.91061	1192.91479	-748.81635	416.67227	1081.67029	-743.00140	338.63412	951.55151	-803.17676	247.99390	871.41351	-760.11713	295.29987	841.19458	-773.14276	227.33768	782.56708	-1155.76050	476.36182	1391.10620	-1240.74390	527.05188	1195.04761	-1253.61792	526.59167	1073.04822	-1273.01538	517.77271	953.32233	-1248.11157	459.77798	812.06915	-1284.28931	518.22656	815.73871	-1289.41760	484.71909	738.09802	-886.98401	397.78168	941.86853	-1108.78833	385.13947	953.43988	-923.90265	552.78009	977.22363	-1093.46729	538.30585	982.67529	-846.14587	510.17551	634.87006	-870.53369	545.40033	474.08911	-881.18713	659.59937	242.32735	-927.79584	724.90302	83.73898	-971.20245	770.52356	79.91223	-936.21692	589.24188	33.50997	-1174.94299	398.15750	626.91217	-1143.06421	372.76212	508.16318	-1155.21948	342.17642	247.71367	-1115.53027	296.27948	66.24804	-1070.10193	327.78302	37.25692	-1109.92590	138.41109	51.36665	-993.53137	517.29828	1686.07397																											 
